# xmcd
#
# Track frame offsets:
#	150
#	15009
#	33793
#	49905
#	64125
#	84749
#	103470
#	123672
#	141373
#	163863
#	179021
#	195520
#	216458
#	233548
#	252709
#	269822
#	288598
#
# Disc length: 4086 seconds
#
# Revision: 1
# Processed by: cddbd v1.5.2PL0 Copyright (c) Steve Scherf et al.
# Submitted via: audiograbber 1.83.01
#
DISCID=0d0ff411
DTITLE=Various Artist - ESP490-05
DYEAR=2007
DGENRE=Country
TTITLE0=Days Of Thunder - Mark Wills
TTITLE1=You Never Take Me Dancing - Travis Tritt
TTITLE2=You Don't Have To Go Home - Gretchen Wilson
TTITLE3=You're Gonna Love Me - Chris Young
TTITLE4=Don't Blink - Kenny Chesney
TTITLE5=Stealing Cinderella - Chuck Wicks
TTITLE6=For These Times - Martina McBride
TTITLE7=Don't Make Me - Blake Shelton
TTITLE8=Winner At A Losing Game - Rascal Flatts
TTITLE9=Biker Chick - Jo Dee Messina
TTITLE10=More Than A Memory - Garth Brooks
TTITLE11=I Told You So - Keith Urban
TTITLE12=Just Might Have Her Radio On - Trent Tomlinson
TTITLE13=Say Yes - Dusty Drake
TTITLE14=Better Get To Livin' - Dolly Parton
TTITLE15=I'm With The Band - Little Big Town
TTITLE16=Cleaning This Gun - Rodney Atkins
EXTD=
EXTT0=
EXTT1=
EXTT2=
EXTT3=
EXTT4=
EXTT5=
EXTT6=
EXTT7=
EXTT8=
EXTT9=
EXTT10=
EXTT11=
EXTT12=
EXTT13=
EXTT14=
EXTT15=
EXTT16=
PLAYORDER=
